<svg width="285" height="277" viewBox="0 0 285 277" fill="none" xmlns="http://www.w3.org/2000/svg">
<rect width="285" height="277" fill="#F5F5F5"/>
<rect width="285" height="277" fill="#37afff0d"/>
<rect x="37" y="33" width="211" height="211" rx="105.5" fill="#D9D9D9"/>
<g filter="url(#filter0_d_0_1)">
<path d="M188.042 188.77L157.694 196.956H112.172L81.8231 188.77V180.584H188.042V188.77Z" fill="#DD6E52"/>
</g>
<g filter="url(#filter1_d_0_1)">
<path d="M193.029 110.125H180.208V102.25H89.7083V141.625C89.7083 153.438 95.7417 163.675 104.792 168.4V173.125H165.125V168.4C171.912 164.462 177.192 157.375 179.454 149.5H180.208C197.554 149.5 202.079 133.75 202.833 121.938C203.587 115.637 199.062 110.125 193.029 110.125ZM180.208 141.625V118H193.029C193.783 118 194.537 118.788 194.537 118.788C194.537 118.788 195.292 119.575 195.292 121.15C193.783 141.625 183.225 141.625 180.208 141.625Z" fill="#ECCD78"/>
<path d="M178.208 110.125V112.125H180.208H193.029C197.726 112.125 201.476 116.449 200.847 121.7L200.841 121.755L200.837 121.81C200.469 127.575 199.186 134.08 196.048 139.086C192.99 143.965 188.137 147.5 180.208 147.5H179.454H177.948L177.532 148.948C175.399 156.371 170.423 163.014 164.121 166.67L163.125 167.248V168.4V171.125H106.792V168.4V167.188L105.717 166.627C97.3989 162.284 91.7083 152.776 91.7083 141.625V104.25H178.208V110.125ZM178.208 141.625V143.625H180.208H180.237C181.829 143.625 185.81 143.625 189.564 140.628C193.361 137.596 196.509 131.85 197.286 121.297L197.292 121.224V121.15C197.292 120.032 197.022 119.148 196.718 118.514C196.568 118.201 196.412 117.952 196.28 117.768C196.214 117.676 196.154 117.6 196.103 117.54C196.077 117.51 196.054 117.483 196.034 117.461C196.024 117.449 196.015 117.439 196.006 117.43L195.993 117.416L195.987 117.41L195.985 117.407L195.983 117.406C195.983 117.405 195.982 117.404 194.637 118.693C195.982 117.404 195.982 117.404 195.981 117.403L195.981 117.403L195.979 117.401L195.976 117.398L195.969 117.39L195.95 117.372C195.937 117.358 195.92 117.341 195.9 117.321C195.859 117.282 195.806 117.232 195.742 117.174C195.615 117.061 195.433 116.908 195.209 116.752C194.831 116.489 194.033 116 193.029 116H180.208H178.208V118V141.625Z" stroke="#5C240B" stroke-width="4"/>
</g>
<path d="M106.475 55C100.887 59.8201 99.9018 71.6317 107.165 80.1168C111.684 84.9037 110.31 93.1222 106.475 94" stroke="#DD6E52" stroke-width="3"/>
<path d="M128.915 55C124.026 59.8201 123.164 71.6317 129.519 80.1168C133.474 84.9037 132.271 93.1222 128.915 94" stroke="#DD6E52" stroke-width="3"/>
<path d="M152.915 55C148.026 59.8201 147.164 71.6317 153.519 80.1168C157.474 84.9037 156.271 93.1222 152.915 94" stroke="#DD6E52" stroke-width="3"/>
<path d="M140 103.5C140 103.224 140.224 103 140.5 103C140.776 103 141 103.224 141 103.5V114.5C141 114.776 140.776 115 140.5 115C140.224 115 140 114.776 140 114.5V103.5Z" fill="#5C240B"/>
<path d="M140 103.5V114.5H142V103.5H140ZM141 114.5V103.5H139V114.5H141ZM140.5 114C140.776 114 141 114.224 141 114.5H139C139 115.328 139.672 116 140.5 116V114ZM140 114.5C140 114.224 140.224 114 140.5 114V116C141.328 116 142 115.328 142 114.5H140ZM140.5 104C140.224 104 140 103.776 140 103.5H142C142 102.672 141.328 102 140.5 102V104ZM140.5 102C139.672 102 139 102.672 139 103.5H141C141 103.776 140.776 104 140.5 104V102Z" fill="black" fill-opacity="0.1"/>
<path d="M132 118.5C132 113.806 135.806 110 140.5 110C145.194 110 149 113.806 149 118.5V140.769C149 141.449 148.449 142 147.769 142H133.231C132.551 142 132 141.449 132 140.769V118.5Z" fill="#E5E5E5"/>
<path d="M147.5 118.5V140.769H150.5V118.5H147.5ZM147.769 140.5H133.231V143.5H147.769V140.5ZM133.5 140.769V118.5H130.5V140.769H133.5ZM133.231 140.5C133.379 140.5 133.5 140.621 133.5 140.769H130.5C130.5 142.277 131.723 143.5 133.231 143.5V140.5ZM147.5 140.769C147.5 140.621 147.621 140.5 147.769 140.5V143.5C149.277 143.5 150.5 142.277 150.5 140.769H147.5ZM140.5 111.5C144.366 111.5 147.5 114.634 147.5 118.5H150.5C150.5 112.977 146.023 108.5 140.5 108.5V111.5ZM140.5 108.5C134.977 108.5 130.5 112.977 130.5 118.5H133.5C133.5 114.634 136.634 111.5 140.5 111.5V108.5Z" fill="#DD6E52"/>
<defs>
<filter id="filter0_d_0_1" x="77.8231" y="180.584" width="114.219" height="24.3719" filterUnits="userSpaceOnUse" color-interpolation-filters="sRGB">
<feFlood flood-opacity="0" result="BackgroundImageFix"/>
<feColorMatrix in="SourceAlpha" type="matrix" values="0 0 0 0 0 0 0 0 0 0 0 0 0 0 0 0 0 0 127 0" result="hardAlpha"/>
<feOffset dy="4"/>
<feGaussianBlur stdDeviation="2"/>
<feComposite in2="hardAlpha" operator="out"/>
<feColorMatrix type="matrix" values="0 0 0 0 0 0 0 0 0 0 0 0 0 0 0 0 0 0 0.25 0"/>
<feBlend mode="normal" in2="BackgroundImageFix" result="effect1_dropShadow_0_1"/>
<feBlend mode="normal" in="SourceGraphic" in2="effect1_dropShadow_0_1" result="shape"/>
</filter>
<filter id="filter1_d_0_1" x="85.7083" y="102.25" width="121.207" height="78.875" filterUnits="userSpaceOnUse" color-interpolation-filters="sRGB">
<feFlood flood-opacity="0" result="BackgroundImageFix"/>
<feColorMatrix in="SourceAlpha" type="matrix" values="0 0 0 0 0 0 0 0 0 0 0 0 0 0 0 0 0 0 127 0" result="hardAlpha"/>
<feOffset dy="4"/>
<feGaussianBlur stdDeviation="2"/>
<feComposite in2="hardAlpha" operator="out"/>
<feColorMatrix type="matrix" values="0 0 0 0 0 0 0 0 0 0 0 0 0 0 0 0 0 0 0.25 0"/>
<feBlend mode="normal" in2="BackgroundImageFix" result="effect1_dropShadow_0_1"/>
<feBlend mode="normal" in="SourceGraphic" in2="effect1_dropShadow_0_1" result="shape"/>
</filter>
</defs>
</svg>
